<svg width="40" height="40" viewBox="0 0 40 40" fill="none" xmlns="http://www.w3.org/2000/svg">
  <path d="M20.158 15.6213C17.466 14.4624 15.11 12.8725 13.09 10.8536C11.072 8.83476 9.48203 6.47825 8.32303 3.78611C7.87803 2.75434 7.52003 1.69376 7.24603 0.606371C7.15703 0.250857 6.83803 0.000610352 6.47203 0.000610352C6.10503 0.000610352 5.78603 0.250857 5.69703 0.606371C5.42303 1.69376 5.06603 2.75334 4.62103 3.78611C3.46203 6.47825 1.87203 8.83476 -0.147969 10.8536C-2.16597 12.8725 -4.52197 14.4624 -7.21397 15.6213C-8.24597 16.0661 -9.30597 16.4236 -10.3933 16.6978C-10.7493 16.7871 -10.9993 17.1059 -10.9993 17.4723C-10.9993 17.8388 -10.7493 18.1575 -10.3933 18.2469C-9.30597 18.521 -8.24697 18.8785 -7.21397 19.3234C-4.52197 20.4822 -2.16697 22.0721 -0.147969 24.091C1.87303 26.1099 3.46203 28.4664 4.62103 31.1585C5.06603 32.1903 5.42303 33.2509 5.69703 34.3382C5.78603 34.6938 6.10503 34.944 6.47203 34.944C6.83803 34.944 7.15703 34.6938 7.24603 34.3382C7.52003 33.2509 7.87803 32.1913 8.32303 31.1585C9.48203 28.4664 11.072 26.1109 13.09 24.091C15.109 22.0721 17.466 20.4822 20.158 19.3234C21.19 18.8785 22.25 18.521 23.338 18.2469C23.693 18.1575 23.943 17.8388 23.943 17.4723C23.943 17.1059 23.693 16.7871 23.338 16.6978C22.25 16.4236 21.191 16.0661 20.158 15.6213Z" fill="url(#paint0_linear)"/>
  <defs>
    <linearGradient id="paint0_linear" x1="-10.9993" y1="17.4723" x2="23.943" y2="17.4723" gradientUnits="userSpaceOnUse">
      <stop stop-color="#1A73E8"/>
      <stop offset="0.3" stop-color="#EA4335"/>
      <stop offset="0.5" stop-color="#FBBC04"/>
      <stop offset="1" stop-color="#34A853"/>
    </linearGradient>
  </defs>
</svg>
