<svg width="40" height="40" viewBox="0 0 40 40" fill="none" xmlns="http://www.w3.org/2000/svg">
  <path d="M33.6353 14.7316C34.0434 13.5194 34.1845 12.2353 34.0493 10.965C33.914 9.69465 33.5056 8.46745 32.8511 7.36539C31.8809 5.69953 30.3994 4.38063 28.6203 3.59884C26.8412 2.81704 24.8563 2.61275 22.9519 3.0154C21.87 1.82825 20.4904 0.942819 18.9517 0.448032C17.4131 -0.0467553 15.7695 -0.133484 14.1862 0.196579C12.6028 0.526642 11.1353 1.26185 9.9312 2.32838C8.72699 3.39491 7.82858 4.75521 7.32603 6.27264C6.05728 6.52928 4.85872 7.05007 3.81035 7.80023C2.76199 8.55038 1.88795 9.51263 1.24688 10.6226C0.266147 12.2857 -0.153095 14.2134 0.0500032 16.1269C0.253101 18.0405 1.06774 19.8408 2.37634 21.2675C1.96672 22.4791 1.82422 23.763 1.95822 25.0333C2.09222 26.3036 2.49967 27.5311 3.15325 28.6335C4.12476 30.3 5.60757 31.6192 7.38791 32.401C9.16825 33.1828 11.1544 33.3868 13.0598 32.9837C13.9194 33.9385 14.9756 34.7014 16.1579 35.2216C17.3402 35.7417 18.6214 36.007 19.9159 35.9999C21.8679 36.0016 23.7699 35.3915 25.3475 34.2576C26.9251 33.1237 28.0966 31.5246 28.6929 29.6912C29.9614 29.4341 31.1599 28.9131 32.2082 28.163C33.2564 27.4128 34.1305 26.4508 34.772 25.341C35.7412 23.6804 36.1532 21.76 35.949 19.8544C35.7448 17.9489 34.935 16.1557 33.6353 14.7316ZM19.9159 33.6437C18.3173 33.6462 16.7687 33.0935 15.5419 32.0825L15.7576 31.9619L23.0238 27.8246C23.2047 27.72 23.3548 27.5707 23.4595 27.3916C23.5642 27.2124 23.6199 27.0094 23.621 26.8026V16.6973L26.6927 18.4502C26.7079 18.4578 26.7211 18.4688 26.7311 18.4824C26.7411 18.4959 26.7478 18.5116 26.7505 18.5282V26.9021C26.7467 28.6889 26.0253 30.4015 24.7444 31.665C23.4635 32.9284 21.7274 33.6399 19.9159 33.6437ZM5.22517 27.4556C4.42352 26.09 4.13562 24.4893 4.41231 22.935L4.62818 23.0628L11.9016 27.2001C12.0815 27.3043 12.2864 27.3592 12.4951 27.3592C12.7037 27.3592 12.9086 27.3043 13.0886 27.2001L21.9735 22.1474V25.646C21.9727 25.6641 21.9677 25.6818 21.959 25.6978C21.9502 25.7138 21.9379 25.7276 21.923 25.7382L14.5633 29.9252C12.9927 30.8177 11.1271 31.0589 9.3764 30.5959C7.62565 30.1329 6.13263 29.0034 5.22517 27.4556ZM3.31156 11.8433C4.11889 10.469 5.39319 9.42072 6.90878 8.88408V17.3999C6.90597 17.6056 6.95928 17.8083 7.06306 17.9868C7.16683 18.1653 7.31717 18.3131 7.49863 18.4147L16.3404 23.4461L13.2685 25.1988C13.2518 25.2075 13.2333 25.2121 13.2145 25.2121C13.1957 25.2121 13.1771 25.2075 13.1605 25.1988L5.81534 21.0191C4.24753 20.1227 3.1038 18.6501 2.63457 16.9236C2.16535 15.1972 2.40883 13.3577 3.31156 11.8079V11.8433ZM28.549 17.627L19.6785 12.5459L22.7433 10.7999C22.7599 10.7912 22.7784 10.7867 22.7972 10.7867C22.8161 10.7867 22.8346 10.7912 22.8512 10.7999L30.1965 14.9869C31.3196 15.6261 32.2351 16.5673 32.8363 17.7005C33.4375 18.8338 33.6994 20.1123 33.5915 21.3869C33.4837 22.6615 33.0105 23.8795 32.2271 24.8988C31.4438 25.918 30.3827 26.6964 29.1678 27.1431V18.6274C29.1614 18.422 29.101 18.2218 28.9925 18.0463C28.884 17.8709 28.7312 17.7265 28.549 17.627ZM31.6066 13.0924L31.3907 12.9646L24.1318 8.79187C23.9507 8.68711 23.7446 8.63179 23.5346 8.63179C23.3247 8.63179 23.1185 8.68711 22.9375 8.79187L14.06 13.8445V10.346C14.0581 10.3282 14.0611 10.3103 14.0687 10.294C14.0763 10.2778 14.0882 10.2639 14.1032 10.2538L21.4484 6.0739C22.5742 5.43417 23.8613 5.12385 25.1593 5.17923C26.4573 5.23461 27.7125 5.6534 28.7781 6.38662C29.8436 7.11983 30.6755 8.13718 31.1764 9.31959C31.6774 10.502 31.8266 11.8008 31.6067 13.0639L31.6066 13.0924ZM12.3834 19.2944L9.31171 17.5487C9.29632 17.5396 9.28318 17.5272 9.27319 17.5125C9.2632 17.4978 9.25661 17.4812 9.25391 17.4637V9.11119C9.25561 7.8299 9.62707 6.57552 10.3249 5.49475C11.0226 4.41397 12.0179 3.55148 13.1943 3.00811C14.3707 2.46474 15.6797 2.26295 16.968 2.42632C18.2564 2.5897 19.471 3.1115 20.4699 3.9307L20.2539 4.05145L12.9879 8.18838C12.8071 8.29307 12.6569 8.44234 12.5522 8.62148C12.4475 8.80061 12.3919 9.00362 12.3907 9.21038L12.3834 19.2944ZM14.0525 15.7463L18.0093 13.4966L21.9735 15.7463V20.2454L18.0237 22.4949L14.0598 20.2454L14.0525 15.7463Z" fill="black"/>
</svg>
